<svg width="100" height="24" viewBox="0 0 100 24" fill="none" xmlns="http://www.w3.org/2000/svg">
<g clip-path="url(#clip0_196_2448)">
<path d="M2.07967 18.1669H0V0.456559L2.07967 0V18.1669ZM7.63909 5.31684L9.26434 6.50805L5.26467 11.5925L9.89888 17.2289L8.2941 18.4907L2.82474 11.7087L7.63909 5.31684Z" fill="black"/>
<path d="M11.4587 14.8009C11.4587 13.535 11.8763 12.5679 12.7114 11.9038C13.5465 11.2397 14.7624 10.9077 16.359 10.9077H18.7539V10.1066C18.7539 8.16831 17.9106 7.19709 16.2239 7.19709C15.6835 7.19709 15.1145 7.2718 14.5168 7.42537C13.9232 7.57894 13.3746 7.76986 12.8792 7.99814L12.2693 6.5081C12.8874 6.1553 13.5547 5.88552 14.2671 5.69459C14.9835 5.50367 15.6794 5.4082 16.359 5.4082C19.282 5.4082 20.7435 6.98956 20.7435 10.1523V18.1711H19.2083L18.9586 16.7973C18.3404 17.2995 17.6813 17.6897 16.9813 17.9677C16.2812 18.2417 15.6139 18.3786 14.9794 18.3786C13.8781 18.3786 13.0184 18.0632 12.3921 17.4282C11.7657 16.7931 11.4546 15.9215 11.4546 14.805L11.4587 14.8009ZM15.3437 16.6811C15.6303 16.6811 15.9291 16.6437 16.2362 16.5649C16.5432 16.4901 16.8544 16.3905 17.1614 16.266C17.4684 16.1457 17.7591 15.9962 18.0334 15.8178C18.3036 15.6434 18.5451 15.4567 18.758 15.2574V12.323H16.5883C15.487 12.323 14.6846 12.5139 14.1811 12.8958C13.6775 13.2776 13.4237 13.8795 13.4237 14.7054C13.4237 16.0211 14.0624 16.6769 15.3437 16.6769V16.6811Z" fill="black"/>
<path d="M26.9127 18.1669H24.833V0.456559L26.9127 0V18.1669ZM32.4721 5.31684L34.0973 6.50805L30.0977 11.5925L34.7319 17.2289L33.1271 18.4907L27.6577 11.7087L32.4721 5.31684Z" fill="black"/>
<path d="M36.2917 14.8009C36.2917 13.535 36.7093 12.5679 37.5444 11.9038C38.3795 11.2397 39.5954 10.9077 41.192 10.9077H43.5869V10.1066C43.5869 8.16831 42.7436 7.19709 41.0569 7.19709C40.5165 7.19709 39.9475 7.2718 39.3498 7.42537C38.7562 7.57894 38.2076 7.76986 37.7123 7.99814L37.1023 6.5081C37.7204 6.1553 38.3877 5.88552 39.1001 5.69459C39.8165 5.50367 40.5124 5.4082 41.192 5.4082C44.115 5.4082 45.5765 6.98956 45.5765 10.1523V18.1711H44.0413L43.7916 16.7973C43.1734 17.2995 42.5143 17.6897 41.8143 17.9677C41.1142 18.2417 40.4469 18.3786 39.8124 18.3786C38.7111 18.3786 37.8514 18.0632 37.2251 17.4282C36.5987 16.7931 36.2876 15.9215 36.2876 14.805L36.2917 14.8009ZM40.1808 16.6811C40.4674 16.6811 40.7662 16.6437 41.0733 16.5649C41.3803 16.4901 41.6915 16.3905 41.9985 16.266C42.3055 16.1457 42.5962 15.9962 42.8705 15.8178C43.1407 15.6434 43.3822 15.4567 43.5951 15.2574V12.323H41.4254C40.3241 12.323 39.5217 12.5139 39.0182 12.8958C38.5146 13.2776 38.2608 13.8795 38.2608 14.7054C38.2608 16.0211 38.8995 16.6769 40.1808 16.6769V16.6811Z" fill="black"/>
<path d="M54.4602 5.42896C56.1796 5.42896 57.5265 5.99343 58.5049 7.12653C59.4833 8.25547 59.9746 9.87418 59.9746 11.9827C59.9746 14.0911 59.4874 15.6559 58.5172 16.7724C57.5469 17.8889 56.1919 18.445 54.4602 18.445C52.7285 18.445 51.3939 17.8889 50.4155 16.7724C49.4371 15.6559 48.9458 14.0621 48.9458 11.9827C48.9458 9.90324 49.4371 8.25547 50.4278 7.12653C51.4144 5.99758 52.7572 5.42896 54.4602 5.42896ZM54.4602 7.12653C53.3753 7.12653 52.5443 7.53743 51.963 8.36339C51.3816 9.18934 51.091 10.393 51.091 11.9827C51.091 13.5723 51.3816 14.7428 51.963 15.5438C52.5443 16.3449 53.3753 16.7475 54.4602 16.7475C55.5451 16.7475 56.4007 16.3449 56.9779 15.5438C57.5592 14.7428 57.8499 13.5557 57.8499 11.9827C57.8499 10.4096 57.5592 9.18934 56.9779 8.36339C56.3966 7.53743 55.5573 7.12653 54.4602 7.12653Z" fill="black"/>
<path d="M66.3489 18.2832V22.9816H63.0493V5.65724H65.3787L65.784 6.75713C66.484 6.04739 67.5484 5.29199 69.2638 5.29199C72.4938 5.29199 74.0331 7.74496 74.0085 11.7087C74.0085 15.8551 71.6341 18.5156 68.2444 18.5156C67.5894 18.5156 67.0899 18.47 66.3449 18.2873L66.3489 18.2832ZM66.3489 8.4547V15.9464C66.5291 15.9713 66.9835 16.017 67.4092 16.017C69.7591 16.017 70.6638 14.3443 70.6638 11.7087C70.6638 9.39273 70.0539 7.99814 68.1789 7.99814C67.5689 7.99814 66.8893 8.18077 66.3489 8.4547Z" fill="black"/>
<path d="M81.1971 10.5383H83.0721V10.1274C83.0721 8.75354 82.3024 8.11021 80.9719 8.11021C79.9567 8.11021 78.6425 8.40905 77.5822 8.93617L76.6775 6.69072C77.8524 5.86477 79.6619 5.29199 81.2667 5.29199C84.4312 5.29199 86.1465 6.98956 86.1465 10.2187V18.1711H83.8172L83.4774 17.1169C82.1428 18.1006 80.9228 18.5156 79.8175 18.5156C77.398 18.5156 76.043 17.0505 76.043 14.5726C76.043 11.937 77.8524 10.5383 81.1971 10.5383ZM83.0721 14.9628V12.6717H81.5574C79.8625 12.6717 79.0028 13.2901 79.0028 14.5269C79.0028 15.465 79.4777 15.9257 80.4479 15.9257C81.3527 15.9257 82.503 15.4691 83.068 14.9628H83.0721Z" fill="black"/>
<path d="M96.1353 16.8845C94.9809 20.0015 93.6054 22.2677 91.5912 23.5295L89.5566 21.6285C90.7315 20.5992 91.5666 19.5906 92.2912 18.2375L87.9067 6.11795L91.1859 5.22559L93.9902 15.0541L96.7699 5.17993L99.9999 6.0972L96.1353 16.8886V16.8845Z" fill="black"/>
</g>
<defs>
<clipPath id="clip0_196_2448">
<rect width="100" height="23.5294" fill="white"/>
</clipPath>
</defs>
</svg>
