<svg width="105" height="42" viewBox="0 0 105 42" fill="none" xmlns="http://www.w3.org/2000/svg">
<g clip-path="url(#clip0_196_2497)">
<path d="M34.0606 16.8177H20.9903C20.6684 16.8177 20.4072 16.5565 20.4072 16.2407C20.4072 16.5565 20.6684 16.9696 20.9903 17.1518L34.0606 24.7012C34.3825 24.8834 34.6437 24.7741 34.6437 24.4522V16.7691C34.6437 16.678 34.6194 16.5808 34.583 16.4837C34.4919 16.678 34.2914 16.8116 34.0606 16.8116" fill="#ED0080"/>
<path d="M34.0608 15.8582L28.0662 12.3962L20.9844 16.4838C20.6625 16.666 20.4014 16.5566 20.4014 16.2408C20.4014 16.5566 20.6625 16.8178 20.9844 16.8178H34.0548C34.2856 16.8178 34.486 16.6842 34.5771 16.4898C34.486 16.2408 34.2856 15.9918 34.0548 15.8643" fill="#862890"/>
<path d="M34.6378 0.333952C34.6378 0.0120525 34.3767 -0.0972719 34.0608 0.0910089L20.9844 7.63439C20.6625 7.8166 20.4014 8.2296 20.4014 8.5515C20.4014 8.2296 20.6625 7.97451 20.9844 7.97451H34.0548C34.2856 7.97451 34.486 8.10813 34.5771 8.30248C34.6135 8.20531 34.6378 8.10813 34.6378 8.01703V0.333952Z" fill="#FDB932"/>
<path d="M34.0606 7.97461H20.9903C20.6684 7.97461 20.4072 8.23577 20.4072 8.5516C20.4072 8.2297 20.6684 8.12038 20.9903 8.30866L28.0721 12.3962L34.0667 8.93423C34.2914 8.80062 34.4919 8.5516 34.583 8.30258C34.4919 8.10823 34.2914 7.97461 34.0606 7.97461Z" fill="#F6851E"/>
<path d="M20.9844 16.4837L28.0662 12.3962L20.9844 8.30866C20.6625 8.12645 20.4014 8.23578 20.4014 8.5516V16.2407C20.4014 16.5566 20.6625 16.672 20.9844 16.4837Z" fill="#44207A"/>
<path d="M0 24.8469H3.38906V31.4489L9.35938 24.8469H13.7992L6.95425 32.2263L14.3883 40.7536H9.64484L3.38906 33.1981V40.7536H0V24.8469Z" fill="#44207A"/>
<path d="M28.3577 39.6241C26.3595 40.7052 24.1669 41.1486 21.9076 41.1486C17.0973 41.1486 13.605 37.8871 13.605 32.7852C13.605 27.6834 17.0973 24.4341 21.9076 24.4341C24.3431 24.4341 26.487 24.9989 28.0297 26.4748L25.6428 29.1715C24.7318 28.1876 23.6203 27.6713 21.9076 27.6713C19.0165 27.6713 17.1216 29.8274 17.1216 32.7852C17.1216 35.7431 19.0165 37.9113 21.9076 37.9113C23.3774 37.9113 24.4645 37.4862 25.0962 37.1279V34.5405H22.3388V31.3094H28.3577V39.618V39.6241Z" fill="#44207A"/>
<path d="M34.832 38.6098V37.0914H40.6384V33.7448H37.055V26.5537H45.9588V33.7448H42.3754V37.0914H48.2V38.6098H34.832ZM44.2461 28.0478H38.7799V32.2507H44.2461V28.0478Z" fill="#44207A"/>
<path d="M48.3095 38.725H34.7168V36.9758H40.5231V33.8662H36.9397V26.426H46.0683V33.8662H42.4849V36.9758H48.3095V38.725ZM34.9415 38.4942H48.0847V37.2006H42.2602V33.6232H45.8375V26.669H37.1644V33.6232H40.7479V37.2006H34.9415V38.4942ZM44.3616 32.366H38.6646V27.9323H44.3616V32.366ZM38.8893 32.1291H44.1369V28.1631H38.8893V32.1291Z" fill="#44207A"/>
<path d="M49.9856 33.0766V26.1771H51.7044V28.2785H55.1906V26.1771H56.8852V33.0766H49.9795H49.9856ZM55.1906 29.7969H51.7044V31.5765H55.1906V29.7969ZM52.6154 40.8326V36.9212H59.5697V35.9494H52.5972V34.4857H61.2824V38.3364H54.3221V39.3567H61.6347V40.8326H52.6154ZM59.5697 25.5454H61.2824V33.7933H59.5697V25.5454Z" fill="#44207A"/>
<path d="M61.7442 40.954H52.5002V36.8058H59.4484V36.0709H52.482V34.3703H61.3919V38.4517H54.4255V39.2473H61.7381V40.954H61.7442ZM52.731 40.7232H61.5255V39.4721H54.2069V38.2209H61.1733V34.6011H52.7128V35.8279H59.6792V37.0366H52.7249V40.7232H52.731ZM61.398 33.9087H59.4544V25.436H61.398V33.9087ZM59.6852 33.6779H61.1733V25.6729H59.6852V33.6779ZM57.0068 33.1859H49.8643V26.0555H51.82V28.1631H55.0754V26.0555H57.0068V33.1859ZM50.0951 32.9551H56.776V26.2863H55.294V28.3939H51.5892V26.2863H50.0951V32.9551ZM55.3001 31.6918H51.5952V29.6815H55.3001V31.6918ZM51.826 31.4549H55.0815V29.9123H51.826V31.4549Z" fill="#44207A"/>
<path d="M72.962 36.0892C72.7616 36.0892 64.8599 36.0892 64.6655 36.0892V30.4408H69.6398V27.9081H64.6655V26.3958H71.2614V31.9591H66.3844V34.5586H72.962V36.0953V36.0892Z" fill="#44207A"/>
<path d="M73.0711 36.2108H71.5102C69.1658 36.2108 64.811 36.2108 64.6653 36.1986H64.562V30.3194H69.5363V28.0175H64.562V26.2683H71.3826V32.0625H66.4995V34.4312C67.1129 34.4312 70.0464 34.4312 71.6863 34.4312H73.0772V36.1986L73.0711 36.2108ZM64.7807 35.9739H72.8464V34.6741C72.6459 34.6741 72.2329 34.6741 71.6802 34.6741H66.2687V31.8439H71.1458V26.5113H64.7746V27.7928H69.7488V30.5563H64.7746V35.9739H64.7807Z" fill="#44207A"/>
<path d="M87.6961 25.7397H89.421V36.4414H87.6961V30.6897H85.2789C85.2242 31.1392 85.1088 31.5339 84.9084 31.8923C84.714 32.2567 84.4893 32.5847 84.216 32.8701C83.8759 33.2042 83.475 33.4714 83.0134 33.6658C82.5457 33.8601 82.0599 33.9512 81.5375 33.9512C81.0152 33.9512 80.4989 33.8601 80.0434 33.6658C79.594 33.4714 79.1931 33.2042 78.853 32.8701C78.5129 32.5239 78.2396 32.1231 78.0513 31.6554C77.8569 31.1877 77.7598 30.6836 77.7598 30.1188C77.7598 29.554 77.8569 29.0559 78.0513 28.5822C78.2456 28.1267 78.519 27.7258 78.853 27.3857C79.1931 27.0395 79.594 26.7783 80.0434 26.5779C80.505 26.3835 81.0031 26.2864 81.5375 26.2864C82.072 26.2864 82.5518 26.3835 83.0134 26.5779C83.4811 26.7783 83.8819 27.0456 84.216 27.3857C84.714 27.8776 85.042 28.4729 85.212 29.1835H87.6961V25.7397ZM79.4847 30.1249C79.4847 30.4589 79.5333 30.7626 79.6426 31.0298C79.7519 31.3031 79.8977 31.54 80.0738 31.7465C80.2621 31.953 80.4807 32.1109 80.7297 32.2142C80.9788 32.3296 81.2521 32.3782 81.5315 32.3782C82.0963 32.3782 82.5761 32.1717 82.983 31.7526C83.39 31.3153 83.5904 30.7687 83.5904 30.1188C83.5904 29.4689 83.396 28.9284 82.983 28.5093C82.5822 28.0781 82.0963 27.8655 81.5315 27.8655C81.2521 27.8655 80.9848 27.9202 80.7297 28.0295C80.4807 28.1388 80.2621 28.2967 80.0738 28.4971C79.8977 28.7036 79.7519 28.9344 79.6426 29.2138C79.5333 29.4932 79.4847 29.7847 79.4847 30.1188M89.7308 40.4925H80.9059V35.4392H82.649V38.9984H89.7308V40.4925Z" fill="#44207A"/>
<path d="M89.8466 40.6078H80.7848V35.3299H82.7587V38.8769H89.8466V40.6018V40.6078ZM81.0095 40.377H89.6218V39.1137H82.534V35.5546H81.0095V40.377ZM89.5247 36.5628H87.5872V30.8172H85.3764C85.3157 31.2242 85.1881 31.6129 85.012 31.9591C84.8176 32.3296 84.5747 32.6636 84.2953 32.9551C83.943 33.3074 83.524 33.5868 83.0502 33.7751C82.5765 33.9755 82.0663 34.0727 81.5379 34.0727C81.0095 34.0727 80.469 33.9755 80.0013 33.7751C79.5276 33.5868 79.1206 33.3013 78.7744 32.9551C78.4282 32.6089 78.1428 32.1899 77.9484 31.7101C77.7419 31.2242 77.6387 30.6897 77.6387 30.1248C77.6387 29.56 77.7419 29.0195 77.9484 28.5518C78.1428 28.072 78.4282 27.659 78.7744 27.3128C79.1267 26.9605 79.5336 26.6811 80.0013 26.4807C80.469 26.2742 80.9852 26.1831 81.5379 26.1831C82.0906 26.1831 82.5765 26.2803 83.0502 26.4807C83.524 26.6811 83.943 26.9605 84.2892 27.3128C84.7812 27.8047 85.1213 28.3939 85.2975 29.0741H87.5872V25.6365H89.5247V36.5689V36.5628ZM87.8058 36.326H89.2999V25.8612H87.8058V29.3049H85.1274L85.1092 29.2138C84.9391 28.5336 84.6172 27.9505 84.1374 27.4768C83.8034 27.1488 83.4207 26.8876 82.9713 26.6933C82.5218 26.4989 82.042 26.4078 81.5379 26.4078C81.0338 26.4078 80.5236 26.4989 80.0863 26.6933C79.649 26.8816 79.2542 27.1427 78.9323 27.4768C78.6044 27.8047 78.3432 28.1935 78.1428 28.6429C77.9606 29.0863 77.8634 29.5843 77.8634 30.1248C77.8634 30.6654 77.9545 31.1695 78.1428 31.6189C78.3371 32.0745 78.5983 32.4632 78.9323 32.7911C79.2542 33.1191 79.649 33.3864 80.0863 33.5686C80.5236 33.7508 81.0156 33.8479 81.5379 33.8479C82.0602 33.8479 82.5218 33.7447 82.9713 33.5686C83.4146 33.3864 83.8034 33.1252 84.1374 32.7911C84.3986 32.5118 84.6294 32.202 84.8176 31.8497C84.9998 31.4975 85.1213 31.1088 85.176 30.6897V30.5864H87.8119V36.326H87.8058ZM81.5318 32.4935C81.2282 32.4935 80.9488 32.4389 80.6876 32.3235C80.4264 32.2081 80.1896 32.038 79.9952 31.8255C79.8009 31.6129 79.6429 31.3578 79.5336 31.0723C79.4243 30.7869 79.3696 30.471 79.3696 30.1248C79.3696 29.7787 79.4243 29.4628 79.5336 29.1713C79.6429 28.8919 79.8009 28.6368 79.9952 28.4182C80.1896 28.2056 80.4264 28.0355 80.6876 27.9262C80.9488 27.8108 81.2282 27.7562 81.5318 27.7562C82.127 27.7562 82.6372 27.9809 83.0624 28.4303C83.4814 28.8676 83.694 29.4325 83.694 30.1248C83.694 30.8172 83.4754 31.376 83.0624 31.8376C82.6372 32.2749 82.121 32.4935 81.5318 32.4935ZM81.5318 27.987C81.2646 27.987 81.0034 28.0295 80.7726 28.1449C80.5358 28.242 80.3353 28.3878 80.1653 28.5822C79.9831 28.7765 79.8434 29.0073 79.7462 29.2624C79.643 29.5236 79.5944 29.809 79.5944 30.1248C79.5944 30.4407 79.643 30.7322 79.7462 30.9934C79.8434 31.2485 79.9831 31.4793 80.1653 31.6675C80.3293 31.8619 80.5358 32.0077 80.7726 32.1109C81.0095 32.2081 81.2646 32.2627 81.5318 32.2627C82.0602 32.2627 82.5279 32.0684 82.8984 31.6736C83.281 31.2545 83.4754 30.7504 83.4754 30.1248C83.4754 29.4993 83.281 28.9952 82.8984 28.5882C82.5097 28.1874 82.0663 27.987 81.5318 27.987Z" fill="#44207A"/>
<path d="M91.5166 36.7574H104.891V38.2393H91.5166V36.7574ZM98.2704 30.4894C97.8088 31.3215 97.159 32.0625 96.3269 32.7124C95.4827 33.3622 94.5534 33.8967 93.527 34.3218L92.537 32.9917C93.0836 32.7913 93.6302 32.5241 94.189 32.1839C94.7599 31.8438 95.2822 31.443 95.756 30.9814C96.2115 30.5441 96.582 30.0643 96.8978 29.5419C97.1954 29.0196 97.3472 28.4791 97.3472 27.9203V26.2136H99.1875V27.9203C99.1875 28.4791 99.3333 29.0196 99.6188 29.5419C99.9042 30.0643 100.287 30.5441 100.767 30.9814C101.246 31.443 101.769 31.8499 102.328 32.1839C102.886 32.5241 103.445 32.7913 103.998 32.9917L103.008 34.3218C101.994 33.8967 101.052 33.3622 100.208 32.7124C99.3515 32.0564 98.7138 31.3154 98.2643 30.4955" fill="#44207A"/>
<path d="M105 38.3485H91.4072V36.6418H105V38.3485ZM91.6319 38.1237H104.775V36.8726H91.6319V38.1237ZM103.05 34.4614L102.971 34.431C101.951 33.9998 100.997 33.441 100.135 32.7911C99.3454 32.1777 98.7137 31.4853 98.2704 30.714C97.8088 31.4914 97.1832 32.1838 96.3936 32.7972C95.5555 33.4532 94.608 33.9998 93.5694 34.431L93.4844 34.4614L92.3486 32.9248L92.5005 32.8762C93.0289 32.6818 93.5816 32.4146 94.1403 32.0805C94.687 31.7404 95.2032 31.3517 95.6709 30.8962C96.1203 30.4771 96.4969 29.9912 96.8006 29.481C97.086 28.983 97.2318 28.4546 97.2318 27.9141V26.0798H99.3029V27.9141C99.3029 28.4546 99.4426 28.983 99.722 29.481C100.001 29.9912 100.378 30.471 100.839 30.8962C101.313 31.3578 101.836 31.7465 102.388 32.0805C102.941 32.4206 103.494 32.6818 104.04 32.8762L104.186 32.9248L103.05 34.4614ZM92.7191 33.0402L93.5633 34.182C94.5412 33.7629 95.4522 33.2345 96.2539 32.615C97.0739 31.9773 97.7237 31.2424 98.1671 30.4285L98.2704 30.2524L98.3675 30.4346C98.7988 31.2302 99.4426 31.9712 100.281 32.6089C101.095 33.2345 102 33.7629 102.977 34.182L103.816 33.0462C103.299 32.8458 102.783 32.5907 102.273 32.281C101.708 31.9408 101.174 31.5339 100.688 31.0662C100.208 30.6229 99.8131 30.1248 99.5215 29.5964C99.2361 29.0559 99.0842 28.4971 99.0842 27.9141V26.3167H97.4565V27.9141C97.4565 28.4971 97.3047 29.062 96.9888 29.6025C96.6852 30.1248 96.2965 30.6229 95.8349 31.0662C95.349 31.5339 94.8206 31.9408 94.2557 32.281C93.7395 32.5907 93.2232 32.8458 92.7252 33.0402" fill="#44207A"/>
<path d="M75.6466 25.5515H73.8428V40.6808H75.6466V25.5515Z" fill="#44207A"/>
<path d="M75.762 40.7961H73.7334V25.4421H75.762V40.7961ZM73.9642 40.5653H75.5373V25.6851H73.9642V40.5653Z" fill="#44207A"/>
</g>
<defs>
<clipPath id="clip0_196_2497">
<rect width="105" height="41.1546" fill="white"/>
</clipPath>
</defs>
</svg>
