<svg width="35" height="29" viewBox="0 0 35 29" fill="none" xmlns="http://www.w3.org/2000/svg">
<g clip-path="url(#clip0_196_2519)">
<path d="M16.7138 23.8451L11.1673 17.0295L19.2209 7.11885H14.8258C12.8573 7.11885 11.5078 7.71931 10.3069 9.12451L6.0665 14.3429V0H1.81376C0.81093 0 0 0.81093 0 1.81995V28.5621H4.25274C5.25557 28.5621 6.0665 27.7511 6.0665 26.7483V19.6357L9.5145 23.8636L12.4487 27.4726C13.043 28.2154 13.823 28.5621 14.6215 28.5621H20.558L16.72 23.8451H16.7138Z" fill="#221E1F"/>
<path d="M27.6272 28.5559C24.3526 28.5559 22.0869 26.2964 22.0869 23.0156V1.81376C22.0869 0.81093 22.904 0 23.9007 0H28.1596V21.8827C28.1596 22.7803 28.8901 23.5108 29.7877 23.5108H34.1209V26.7421C34.1209 27.745 33.3038 28.5559 32.3071 28.5559H27.6272Z" fill="#221E1F"/>
<path d="M6.64844 13.6062V13.5938C6.64844 13.5938 6.64844 13.5938 6.64844 13.6V13.6062ZM34.9939 5.53402L34.6224 5.9302C34.6224 5.9302 33.471 7.10017 30.1964 7.10017H14.7206C12.2754 7.10017 11.124 8.09681 10.2512 9.16773L9.76216 9.76819C9.76216 9.76819 9.7374 9.79295 9.72502 9.80534L6.65463 13.5876C7.77507 12.7457 9.30408 12.2381 10.864 12.2381H30.1964C32.5425 12.2381 34.7958 11.5448 34.9815 9.79295C35.0062 9.65058 35 9.55772 35 9.55772V5.52783L34.9939 5.53402Z" fill="#ED1B23"/>
</g>
<defs>
<clipPath id="clip0_196_2519">
<rect width="35" height="28.5559" fill="white"/>
</clipPath>
</defs>
</svg>
