<svg width="95" height="17" viewBox="0 0 95 17" fill="none" xmlns="http://www.w3.org/2000/svg">
<g clip-path="url(#clip0_196_2439)">
<path d="M12.6815 0V8.57323L6.58813 0H0V17H6.56865V8.41926L12.6581 17H19.2501V0H12.6815Z" fill="#23A94A"/>
<path d="M89.6897 10.6385C92.0234 10.0076 93.5233 8.38913 93.5233 5.78674C93.5233 1.40812 89.9195 0.00366211 85.1703 0.00366211H76.9692V17.0037H83.534V11.69L87.4534 17.0037H94.996L89.6897 10.6423V10.6385ZM86.4638 7.17243C86.082 7.47285 85.3417 7.62306 84.734 7.62306H83.3275V4.27713H84.7106C85.3729 4.27713 86.1326 4.4311 86.495 4.73527C86.8651 5.03569 87.0287 5.45628 87.0287 5.97826C87.0287 6.50024 86.8534 6.87952 86.4677 7.17243" fill="#23A94A"/>
<path d="M60.9722 0H74.2848V4.42368H67.4746V6.42523H73.7471V10.6048H67.4746V12.5688H74.4874V17H60.9722V0Z" fill="#23A94A"/>
<path d="M35.0485 0H27.5643L20.6528 17H27.9578L28.5929 14.7769H34.0122L34.6512 17H41.9561L35.0485 0ZM29.6682 10.8489L31.2188 5.23857H31.398L32.9447 10.8489H29.6721H29.6682Z" fill="#23A94A"/>
<path d="M52.4089 0L49.1714 10.2481H48.9883L45.7546 0H38.5898L45.9805 17H52.1791L59.562 0H52.4089Z" fill="#23A94A"/>
</g>
<defs>
<clipPath id="clip0_196_2439">
<rect width="95" height="17" fill="white"/>
</clipPath>
</defs>
</svg>
