<svg width="135" height="15" viewBox="0 0 135 15" fill="none" xmlns="http://www.w3.org/2000/svg">
<g clip-path="url(#clip0_196_2482)">
<path d="M18.5763 11.9481L20.2562 0.426514H16.9943L14.957 14.5031H23.5595L23.9169 11.9481H18.5763Z" fill="black"/>
<path d="M28.4899 0.428223L26.4526 14.503H29.7164L31.7537 0.428223H28.4899Z" fill="black"/>
<path d="M43.9847 0.428223L39.2856 10.3924L37.7337 0.428223H34.5376L37.2257 14.503H40.1641L47.1789 0.428223H43.9847Z" fill="black"/>
<path d="M11.6987 1.76135C10.7957 0.767532 9.33784 0.0944792 7.55076 0.0740837C3.13196 0.0277302 0.804994 2.68101 0.127784 7.36642V7.38682C-0.239039 9.90474 0.20491 11.8738 1.30538 13.1254C2.19704 14.1414 3.59661 14.7218 5.363 14.8071C9.76862 15.0185 12.31 12.1835 12.8462 7.41834C13.1453 4.77433 12.8198 2.99621 11.6987 1.76135ZM9.45636 7.4684C8.95221 10.9505 7.84798 12.3615 5.7618 12.3615C4.95667 12.3615 4.3754 12.037 3.96719 11.5753C3.30503 10.8244 3.13761 9.62476 3.45364 7.43502V7.41463C3.95026 4.0883 5.03191 2.51228 7.1181 2.51228C7.92323 2.51228 8.54588 2.7459 8.95221 3.20944C9.61437 3.96222 9.77427 5.26382 9.45636 7.4684Z" fill="black"/>
<path d="M49.8952 0.428223L47.8579 14.503H56.688L57.0285 12.1482H51.4622L52.0585 8.29349H57.0623L57.369 5.91277H52.3651L52.8166 2.78298H58.0857L58.4262 0.428223H49.8952Z" fill="black"/>
<path d="M72.5234 9.36148L78.4791 0.368896H74.9143L71.2705 6.11673L69.3048 0.368896H65.9507L69.2634 8.89794L68.447 14.5531H71.7333L72.5027 9.39671L72.5234 9.36148Z" fill="black"/>
<path d="M90.1764 1.70962C89.2622 0.702821 87.7874 0.0204973 85.9758 0.00010177C81.5025 -0.0462518 79.1473 2.6404 78.4588 7.38515L78.455 7.40554C78.0863 9.95498 78.5359 11.9482 79.6496 13.2164C80.5525 14.2455 81.9709 14.8351 83.7598 14.9204C88.22 15.1336 90.7934 12.2634 91.339 7.43892C91.6418 4.76154 91.3126 2.96117 90.1764 1.70962ZM87.9059 7.48898C87.3961 11.0137 86.2768 12.4451 84.1643 12.4451C83.3479 12.4451 82.761 12.1169 82.3471 11.6478C81.6774 10.8858 81.5062 9.67316 81.8279 7.4556V7.43521C82.3302 4.06623 83.425 2.47167 85.5375 2.47167C86.3539 2.47167 86.9822 2.709 87.3942 3.17624C88.0639 3.9383 88.2276 5.25845 87.904 7.48898" fill="black"/>
<path d="M117.944 0.368896L116.582 10.0512L112.989 0.368896H109.588L107.537 14.5531H110.571L112.076 4.56667L115.724 14.5531H118.924L120.976 0.368896H117.944Z" fill="black"/>
<path d="M134.575 9.85282C134.15 12.71 131.943 15.2113 127.859 14.9499C125.91 14.8256 124.633 14.0728 123.734 12.8677C122.859 11.694 122.362 9.74899 122.799 7.15133C123.69 1.82439 126.39 -0.107627 130.139 0.0536833C132.722 0.164932 134.206 1.36642 135 3.63403L132.199 4.55183C131.992 3.83242 131.364 2.56419 129.815 2.43811C127.699 2.26567 126.397 4.06234 125.905 7.46839C125.615 9.46345 125.453 12.0963 128.04 12.393C129.817 12.5951 131.164 11.8238 131.776 9.61363C131.875 9.25022 131.887 9.04256 131.887 9.04256H128.764L129.116 6.63032L134.921 6.62476C134.94 6.7082 134.757 8.62723 134.575 9.85467" fill="black"/>
<path d="M103.049 0.420799L101.798 9.1538C101.472 10.9412 101.455 11.4418 100.643 12.1093C99.8734 12.7397 98.2029 12.6878 97.3809 11.8646C96.7319 11.2138 96.984 9.87136 97.1608 8.49373L98.2048 0.420799H94.9166L93.7296 9.50424C93.4117 11.8868 94.2525 13.1773 95.8459 14.1804C97.1156 14.9814 98.8707 15.0945 100.005 14.9406C102.02 14.6699 103.348 13.8874 104.127 12.5636C104.606 11.7477 104.828 10.9227 105.043 9.49311L106.337 0.418945H103.049V0.420799Z" fill="black"/>
</g>
<defs>
<clipPath id="clip0_196_2482">
<rect width="135" height="15" fill="white"/>
</clipPath>
</defs>
</svg>
