<svg width="80" height="21" viewBox="0 0 80 21" fill="none" xmlns="http://www.w3.org/2000/svg">
<path d="M80 2.48017L78.5513 1.05559H66.15V2.00375L65.3222 1.05559H52.921V1.95237L52.0908 1.00421H48.8264V1.52967L48.4737 1.05559H46.6816L45.715 0H42.4506V1.05559H39.6919V2.00375L38.8617 1.05559H35.5974V1.52967L35.2446 1.05559H33.4525L32.4835 0H29.2192V1.05559H26.4605V2.00375L25.5927 1.05559H22.3283V3.58246L19.7672 1.05559H15.3975L13.1914 3.2485V4.01918L10.1929 1.05792H2.20602L0 3.24617V8.10608L2.81279 10.8898H0V14.1313L1.44873 15.5559H4.56726V19.2948L6.01599 20.7194H9.28034V15.5559H13.8476V12.5947L16.8462 15.5559H21.2159L22.326 14.4536V19.2948L23.7747 20.7194H27.039V19.7713L27.9069 20.7194H40.3081V18.7974L39.1463 17.1043H40.7126L44.3697 20.7194H51.3311L53.5395 18.5265V15.696L51.3311 13.5031H51.3288L51.1806 13.356H53.5395V12.8819L53.9817 13.356H56.7498L57.6364 10.1589L58.1279 11.9314L59.5767 13.356H60.7032V19.2925L62.1519 20.7171H66.7686V19.7689L67.5964 20.7171H79.9977V17.8633L79.031 17.0132H79.9977V11.5087L79.2733 10.9482H79.9977V8.65956L79.2733 8.00799H79.9977V5.15417L79.5155 4.7665H79.9977V2.47783L80 2.48017ZM49.0687 12.0832H49.0546L49.0687 12.0692V12.0832Z" fill="black"/>
<path d="M2.38699 1.48525L0.432617 3.4236V7.92854L2.38699 9.86923H10.0163L11.9707 7.92854V3.4236L10.0163 1.48291H2.38699V1.48525ZM9.56714 7.48715H2.83149V3.86966H9.56714V7.48715Z" fill="white"/>
<path d="M15.5786 1.48525L13.6243 3.42594V11.7656L15.5786 13.7062H19.5885L21.5429 11.7656V3.4236L19.5885 1.48291H15.5786V1.48525ZM19.144 11.3195H16.0255V3.86733H19.144V11.3195Z" fill="white"/>
<path d="M32.8573 13.7038L34.8117 11.7631V5.71218L32.8573 3.77148H28.8474L26.8931 5.71218V11.7631L28.8474 13.7038H32.8573ZM29.2919 6.1559H32.4105V11.3194H29.2919V6.1559Z" fill="white"/>
<path d="M0.432617 13.704H4.99988V18.8675H7.4011V13.704H11.9684V11.3196H0.432617V13.704Z" fill="white"/>
<path d="M34.8117 1.48528H32.053V0.429688H29.6518V1.48528H26.8931V2.91452H34.8117V1.48528Z" fill="white"/>
<path d="M25.1599 1.48535H22.761V18.8675H25.1599V9.32987H26.023V6.94545H25.1599V1.48535Z" fill="white"/>
<path d="M29.2919 14.3298H26.8931V18.8675H38.4288V16.483H29.2919V14.3298Z" fill="white"/>
<path d="M38.4291 1.48535H36.0278V13.704H38.4291V9.32987H39.3463V6.94545H38.4291V1.48535Z" fill="white"/>
<path d="M46.0888 11.5576L48.0431 9.61692V5.71218L46.0888 3.77148H42.0789L40.1245 5.71218V9.61692L42.0789 11.5576H46.0888ZM42.5234 6.1559H45.6419V9.1732H42.5234V6.1559Z" fill="white"/>
<path d="M43.1021 12.5129L41.1477 14.4536V16.9268L43.1021 18.8675H49.706L51.6604 16.9268V14.4536L49.706 12.5129H43.1021ZM49.2592 16.4831H43.5489V14.895H49.2592V16.4831Z" fill="white"/>
<path d="M48.0412 1.48528H45.2825V0.429688H42.8836V1.48528H40.1226V2.91452H48.0412V1.48528Z" fill="white"/>
<path d="M49.2594 3.77388H48.7231V6.15596H49.2594V7.54551H48.7231V9.92992H49.2594V11.5063H51.6606V1.43384H49.2594V3.77388Z" fill="white"/>
<path d="M78.1161 7.66479H66.5803V9.09638H78.1161V7.66479Z" fill="white"/>
<path d="M66.5803 6.1561H78.1184V4.16169H68.9815V2.9146H78.1184V1.48535H66.5803V6.1561Z" fill="white"/>
<path d="M66.5803 18.8674H78.1184V16.8707H68.9815V15.1635H78.1184V10.5161H66.5803V12.5129H75.7219V13.7319H66.5803V18.8674Z" fill="white"/>
<path d="M60.221 2.9146V1.48535H53.3536V2.9146H55.4797L53.0996 11.5064H54.9717L56.7144 5.21728L58.4594 11.5064H60.3315L57.9514 2.9146H60.221Z" fill="white"/>
<path d="M64.8894 1.48535H63.4478V18.8675H64.8894V1.48535Z" fill="white"/>
<path d="M61.1382 5.10751H60.1316V7.48959H61.1382V18.8675H62.5775V1.48535H61.1382V5.10751Z" fill="white"/>
</svg>
